<svg width="21.169922" height="21.548035" viewBox="0 0 21.1699 21.548" fill="none" xmlns="http://www.w3.org/2000/svg" xmlns:xlink="http://www.w3.org/1999/xlink">
	<desc>
			Created with Pixso.
	</desc>
	<defs/>
	<path id="monetization_on" d="M9.63232 18.3158L11.4846 18.3158L11.4846 16.9691C12.3667 16.8075 13.1255 16.4573 13.7605 15.9186C14.3955 15.3799 14.7131 14.5808 14.7131 13.5214C14.7131 12.7672 14.5015 12.0759 14.0781 11.4474C13.6545 10.8189 12.8079 10.2712 11.5376 9.80435C10.4792 9.44522 9.74707 9.13098 9.34131 8.86163C8.93555 8.59229 8.73267 8.22418 8.73267 7.75729C8.73267 7.29041 8.89575 6.9223 9.22217 6.65295C9.54858 6.38361 10.0205 6.24893 10.6379 6.24893C11.2024 6.24893 11.6436 6.38809 11.9609 6.66641C12.2786 6.94476 12.5081 7.29041 12.6492 7.70343L14.3428 7.00311C14.1487 6.37463 13.7913 5.82693 13.271 5.36008C12.7505 4.89319 12.1729 4.63281 11.5376 4.57895L11.5376 3.23221L9.6853 3.23221L9.6853 4.57895C8.80322 4.77649 8.11523 5.17154 7.62109 5.7641C7.1272 6.35666 6.88037 7.02106 6.88037 7.75729C6.88037 8.60126 7.1228 9.2836 7.60791 9.80435C8.09302 10.3251 8.8562 10.774 9.89697 11.1511C11.0083 11.5641 11.7803 11.9322 12.2124 12.2554C12.6448 12.5787 12.8608 13.0006 12.8608 13.5214C12.8608 14.114 12.6536 14.5494 12.239 14.8277C11.8242 15.1061 11.3259 15.2452 10.7439 15.2452C10.1616 15.2452 9.64551 15.0612 9.1958 14.6931C8.74585 14.325 8.41504 13.7728 8.20337 13.0366L6.45679 13.7369C6.70386 14.5988 7.08765 15.2946 7.60791 15.8243C8.12842 16.3541 8.80322 16.7177 9.63232 16.9152L9.63232 18.3158ZM10.585 21.548C9.12085 21.548 7.74463 21.2652 6.45679 20.6996C5.16895 20.1339 4.04883 19.3663 3.09619 18.3966C2.14355 17.427 1.38916 16.2867 0.833496 14.9759C0.277832 13.665 0 12.2644 0 10.774C0 9.2836 0.277832 7.883 0.833496 6.57214C1.38916 5.26132 2.14355 4.12106 3.09619 3.1514C4.04883 2.18173 5.16895 1.41409 6.45679 0.84845C7.74463 0.282806 9.12085 0 10.585 0C12.0493 0 13.4253 0.282806 14.7131 0.84845C16.001 1.41409 17.1213 2.18173 18.074 3.1514C19.0266 4.12106 19.7808 5.26132 20.3364 6.57214C20.8921 7.883 21.1699 9.2836 21.1699 10.774C21.1699 12.2644 20.8921 13.665 20.3364 14.9759C19.7808 16.2867 19.0266 17.427 18.074 18.3966C17.1213 19.3663 16.001 20.1339 14.7131 20.6996C13.4253 21.2652 12.0493 21.548 10.585 21.548Z" fill="#FFFFFF" fill-opacity="1.000000" fill-rule="nonzero"/>
</svg>
