<svg width="22.750000" height="21.374451" viewBox="0 0 22.75 21.3745" fill="none" xmlns="http://www.w3.org/2000/svg" xmlns:xlink="http://www.w3.org/1999/xlink">
	<desc>
			Created with Pixso.
	</desc>
	<defs/>
	<path id="Vector" d="M10.9609 21.2682L10.9526 21.2646L10.927 21.2504C10.7769 21.1663 10.6279 21.08 10.4802 20.9915C8.70435 19.9174 7.04468 18.6556 5.52881 17.2271C2.84424 14.6776 0 10.8942 0 6.23447C0 2.75745 2.87476 9.15527e-05 6.34424 9.15527e-05C7.30884 -0.00473022 8.26196 0.211853 9.13306 0.633728C10.0039 1.0556 10.7703 1.67194 11.375 2.43683C11.9797 1.67178 12.7463 1.05536 13.6174 0.633484C14.4888 0.211609 15.4421 -0.00491333 16.4067 9.15527e-05C19.8752 9.15527e-05 22.75 2.75745 22.75 6.23447C22.75 10.8954 19.9058 14.6788 17.2212 17.226C15.7053 18.6545 14.0457 19.9163 12.2698 20.9903C12.1221 21.0792 11.9731 21.1659 11.823 21.2504L11.7974 21.2646L11.7891 21.2694L11.7856 21.2706C11.6592 21.3388 11.5181 21.3745 11.375 21.3745C11.2319 21.3745 11.0908 21.3388 10.9644 21.2706L10.9609 21.2682Z" fill="#FFFFFF" fill-opacity="1.000000" fill-rule="nonzero"/>
</svg>
